<svg xmlns="http://www.w3.org/2000/svg" viewBox="0 0 280 64" fill="none">
  <defs>
    <linearGradient id="shield-grad" x1="0" y1="0" x2="1" y2="1">
      <stop offset="0%" stop-color="#1e3a5f"/>
      <stop offset="100%" stop-color="#1a2d4a"/>
    </linearGradient>
    <linearGradient id="n-grad" x1="0" y1="0" x2="1" y2="1">
      <stop offset="0%" stop-color="#38bdf8"/>
      <stop offset="100%" stop-color="#22d3ee"/>
    </linearGradient>
  </defs>
  <!-- Shield outline -->
  <path d="M28 4 L52 4 C54 4 56 6 56 8 L56 36 C56 40 54 44 50 48 L40 56 C38 58 36 58 34 56 L24 48 C20 44 18 40 18 36 L18 8 C18 6 20 4 22 4 Z" fill="url(#shield-grad)" stroke="#2563eb" stroke-width="1.5"/>
  <!-- Shield left face -->
  <path d="M28 4 L37 4 L37 56 L34 56 C32 54 28 50 24 46 C20 42 18 38 18 34 L18 8 C18 6 20 4 22 4 Z" fill="#1e3a6f" opacity="0.9"/>
  <!-- N letter left stroke -->
  <path d="M26 16 L32 16 L32 44 L26 44 Z" fill="white"/>
  <!-- N letter diagonal -->
  <path d="M26 16 L32 16 L48 44 L42 44 Z" fill="url(#n-grad)"/>
  <!-- N letter right stroke -->
  <path d="M42 16 L48 16 L48 44 L42 44 Z" fill="url(#n-grad)"/>
  <!-- Shield highlight edge -->
  <path d="M37 4 L52 4 C54 4 56 6 56 8 L56 34 C56 38 54 42 50 46 L40 54 L37 56 Z" fill="#0ea5e9" opacity="0.15"/>
  <!-- EXTGUARD text -->
  <text x="66" y="43" font-family="'Arial Black', 'Helvetica Neue', Arial, sans-serif" font-weight="900" font-size="36" fill="white" letter-spacing="1">
    <tspan>EXTGUARD</tspan>
  </text>
</svg>
